<svg width="32" height="33" fill="none" xmlns="http://www.w3.org/2000/svg"><ellipse cx="20.865" cy="11.33" rx="1.07" ry="1.085" fill="#fff"/><ellipse cx="10.166" cy="11.33" rx="1.07" ry="1.085" fill="#fff"/><ellipse cx="10.166" cy="24.351" rx="1.07" ry="1.085" fill="#fff"/><ellipse cx="15.515" cy="26.521" rx="1.07" ry="1.085" fill="#fff"/><ellipse cx="6.956" cy="17.775" rx="1.07" ry="1.085" fill="#fff"/><ellipse cx="24.075" cy="17.775" rx="1.07" ry="1.085" fill="#fff"/><ellipse cx="20.865" cy="24.351" rx="1.07" ry="1.085" fill="#fff"/><mask id="a" fill="#fff"><path fill-rule="evenodd" clip-rule="evenodd" d="M20.567 29.067c.413-.2.913-.13 1.23.2l1.776 1.854a.676.676 0 10.976-.935l-1.348-1.408c-.419-.436-.355-1.139.097-1.54 2.602-2.314 4.254-5.767 4.254-9.623C27.552 10.648 22.163 5 15.515 5 8.868 5 3.48 10.648 3.48 17.614c0 3.817 1.618 7.238 4.174 9.552.445.402.505 1.1.09 1.533l-1.426 1.487a.676.676 0 00.976.935l1.83-1.909c.32-.334.825-.4 1.239-.195a11.535 11.535 0 005.153 1.212c1.805 0 3.516-.416 5.052-1.162zm-5.052-.24c5.91 0 10.7-5.02 10.7-11.213 0-6.192-4.79-11.212-10.7-11.212-5.908 0-10.699 5.02-10.699 11.212 0 6.193 4.79 11.213 10.7 11.213zm-.747-11.529v-7.37a.769.769 0 011.538 0v8.207a.79.79 0 01-.79.79.747.747 0 01-.748-.747v-.88z"/></mask><path fill-rule="evenodd" clip-rule="evenodd" d="M20.567 29.067c.413-.2.913-.13 1.23.2l1.776 1.854a.676.676 0 10.976-.935l-1.348-1.408c-.419-.436-.355-1.139.097-1.54 2.602-2.314 4.254-5.767 4.254-9.623C27.552 10.648 22.163 5 15.515 5 8.868 5 3.48 10.648 3.48 17.614c0 3.817 1.618 7.238 4.174 9.552.445.402.505 1.1.09 1.533l-1.426 1.487a.676.676 0 00.976.935l1.83-1.909c.32-.334.825-.4 1.239-.195a11.535 11.535 0 005.153 1.212c1.805 0 3.516-.416 5.052-1.162zm-5.052-.24c5.91 0 10.7-5.02 10.7-11.213 0-6.192-4.79-11.212-10.7-11.212-5.908 0-10.699 5.02-10.699 11.212 0 6.193 4.79 11.213 10.7 11.213zm-.747-11.529v-7.37a.769.769 0 011.538 0v8.207a.79.79 0 01-.79.79.747.747 0 01-.748-.747v-.88z" fill="#fff"/><path d="M9.123 29.212l2.888 2.768-2.888-2.768zm1.239-.195l1.78-3.581-1.78 3.581zm-3.069 2.104l-2.888-2.767 2.888 2.767zm-.976-.935l2.888 2.767-2.888-2.767zm16.884-1.408l-2.889 2.768 2.889-2.768zm-15.459-.08l-2.888-2.767L7.742 28.7zm16.807 1.488l2.889-2.767-2.889 2.767zm-.976.935l-2.888 2.768 2.888-2.768zm.976 0l2.889 2.768-2.889-2.768zm-2.752-1.854l2.888-2.767-2.888 2.767zm-2.888 2.768l1.776 1.854 5.777-5.535-1.777-1.854-5.776 5.535zm8.529-4.616l-1.35-1.408-5.776 5.535 1.35 1.407 5.776-5.535zm-1.482 2.808c3.446-3.064 5.596-7.6 5.596-12.613h-8c0 2.702-1.154 5.071-2.912 6.635l5.316 5.978zm5.596-12.613C31.552 8.617 24.547 1 15.515 1v8c4.264 0 8.037 3.678 8.037 8.614h8zM15.515 1C6.486 1-.52 8.617-.52 17.614h8C7.48 12.678 11.252 9 15.515 9V1zM-.52 17.614c0 4.96 2.106 9.455 5.49 12.517l5.368-5.931C8.61 22.636 7.48 20.288 7.48 17.615h-8zm5.375 8.317L3.43 27.42l5.776 5.534 1.425-1.487-5.776-5.535zm5.327 7.958l1.83-1.91-5.776-5.534-1.83 1.909 5.776 5.535zm-1.6-1.29a15.534 15.534 0 006.934 1.63v-8a7.535 7.535 0 01-3.372-.793L8.58 32.599zm6.934 1.63c2.427 0 4.734-.561 6.799-1.563L18.82 25.47a7.533 7.533 0 01-3.306.76v8zm0-1.402c8.293 0 14.7-6.99 14.7-15.212h-8c0 4.162-3.174 7.212-6.7 7.212v8zm14.7-15.212c0-8.223-6.407-15.213-14.7-15.213v8c3.526 0 6.7 3.05 6.7 7.213h8zm-14.7-15.213c-8.293 0-14.7 6.99-14.7 15.212h8c0-4.162 3.175-7.212 6.7-7.212v-8zM.816 17.614c0 8.223 6.407 15.213 14.7 15.213v-8c-3.525 0-6.7-3.05-6.7-7.213h-8zm11.49-.316v.543h8v-.543h-8zm0 .543v.294h8v-.294h-8zm6.462.337v-.337h-8v.337h8zm0-.337v-.543h-8v.543h8zm0-.543V13.5h-8v3.798h8zm0-3.798V9.928h-8V13.5h8zm-6.462-3.572V13.5h8V9.928h-8zm0 3.572v3.798h8V13.5h-8zm3.23-8.34a4.769 4.769 0 00-4.768 4.768h8a3.231 3.231 0 01-3.231 3.232v-8zm-3.23 12.975a3.21 3.21 0 013.21-3.21v8a4.79 4.79 0 004.79-4.79h-8zM12.01 31.98a2.94 2.94 0 01-3.43.619l3.562-7.163c-1.838-.914-4.271-.7-5.908 1.009l5.776 5.535zm-8.582 1.909a4.676 4.676 0 006.752 0l-5.776-5.535a3.324 3.324 0 014.8 0L3.43 33.889zm0-6.47a4.676 4.676 0 000 6.47l5.776-5.535a3.324 3.324 0 010 4.6L3.43 27.418zm22.66-1.408c1.317 1.375.924 3.276-.133 4.216L20.64 24.25c-1.96 1.743-2.481 5.05-.328 7.297l5.777-5.535zM15.537 13.16a3.231 3.231 0 01-3.231-3.232h8a4.769 4.769 0 00-4.77-4.768v8zM4.968 30.13c-1.044-.945-1.422-2.835-.114-4.2l5.776 5.535c2.14-2.232 1.641-5.515-.293-7.266L4.968 30.13zm22.47 3.758a4.676 4.676 0 000-6.47l-5.777 5.534a3.324 3.324 0 010-4.6l5.777 5.536zm-6.753 0a4.676 4.676 0 006.753 0l-5.777-5.535a3.324 3.324 0 014.8 0l-5.776 5.535zm-5.17-18.963a3.253 3.253 0 013.253 3.252h-8a4.747 4.747 0 004.747 4.748v-8zm9.17 11.574c-1.624-1.695-4.032-1.92-5.864-1.031l3.493 7.197a2.941 2.941 0 01-3.405-.631l5.776-5.535z" fill="#fff" mask="url(#a)"/><path fill="#fff" d="M15 6V2h1.5v4z"/><rect x="8" y="2" width="15.5" height="1.5" rx=".75" fill="#fff"/></svg>