<svg width="32" height="33" viewBox="0 0 32 33" fill="none" xmlns="http://www.w3.org/2000/svg">
<ellipse cx="20.865" cy="11.3297" rx="1.06991" ry="1.08512" fill="white"/>
<ellipse cx="10.1659" cy="11.3297" rx="1.06991" ry="1.08512" fill="white"/>
<ellipse cx="10.1659" cy="24.3512" rx="1.06991" ry="1.08512" fill="white"/>
<ellipse cx="15.5155" cy="26.5214" rx="1.06991" ry="1.08512" fill="white"/>
<ellipse cx="6.95614" cy="17.7748" rx="1.06991" ry="1.08512" fill="white"/>
<ellipse cx="24.0746" cy="17.7748" rx="1.06991" ry="1.08512" fill="white"/>
<ellipse cx="20.865" cy="24.3512" rx="1.06991" ry="1.08512" fill="white"/>
<mask id="path-8-inside-1_2403_814" fill="white">
<path fill-rule="evenodd" clip-rule="evenodd" d="M20.5673 29.0675C20.9797 28.8674 21.4795 28.9361 21.7967 29.2672L23.5734 31.1213C23.8395 31.399 24.2834 31.399 24.5495 31.1213C24.8 30.8598 24.8 30.4474 24.5495 30.1859L23.2005 28.7782C22.7825 28.342 22.8464 27.6394 23.2979 27.2379C25.9004 24.9241 27.552 21.4714 27.552 17.6145C27.552 10.6477 22.1631 5 15.5155 5C8.86797 5 3.47906 10.6477 3.47906 17.6145C3.47906 21.4314 5.09666 24.8524 7.65257 27.1656C8.09757 27.5683 8.15757 28.2654 7.74231 28.6987L6.31717 30.1859C6.06664 30.4474 6.06664 30.8598 6.31717 31.1213C6.58328 31.399 7.02716 31.399 7.29328 31.1213L9.12273 29.2121C9.44258 28.8783 9.94761 28.8114 10.3615 29.0173C11.9239 29.7943 13.6713 30.229 15.5155 30.229C17.3197 30.229 19.0311 29.813 20.5673 29.0675ZM15.5155 28.8274C21.4245 28.8274 26.2146 23.8072 26.2146 17.6145C26.2146 11.4218 21.4245 6.40161 15.5155 6.40161C9.60659 6.40161 4.81645 11.4218 4.81645 17.6145C4.81645 23.8072 9.60659 28.8274 15.5155 28.8274ZM14.7681 17.298V13.5001V9.92842C14.7681 9.50383 15.1123 9.15963 15.5369 9.15963C15.9615 9.15963 16.3057 9.50383 16.3057 9.92842V13.5001V17.298V17.8406V18.1354C16.3057 18.5719 15.9519 18.9257 15.5154 18.9257C15.1027 18.9257 14.7681 18.5911 14.7681 18.1784V17.8406V17.298Z"/>
</mask>
<path fill-rule="evenodd" clip-rule="evenodd" d="M20.5673 29.0675C20.9797 28.8674 21.4795 28.9361 21.7967 29.2672L23.5734 31.1213C23.8395 31.399 24.2834 31.399 24.5495 31.1213C24.8 30.8598 24.8 30.4474 24.5495 30.1859L23.2005 28.7782C22.7825 28.342 22.8464 27.6394 23.2979 27.2379C25.9004 24.9241 27.552 21.4714 27.552 17.6145C27.552 10.6477 22.1631 5 15.5155 5C8.86797 5 3.47906 10.6477 3.47906 17.6145C3.47906 21.4314 5.09666 24.8524 7.65257 27.1656C8.09757 27.5683 8.15757 28.2654 7.74231 28.6987L6.31717 30.1859C6.06664 30.4474 6.06664 30.8598 6.31717 31.1213C6.58328 31.399 7.02716 31.399 7.29328 31.1213L9.12273 29.2121C9.44258 28.8783 9.94761 28.8114 10.3615 29.0173C11.9239 29.7943 13.6713 30.229 15.5155 30.229C17.3197 30.229 19.0311 29.813 20.5673 29.0675ZM15.5155 28.8274C21.4245 28.8274 26.2146 23.8072 26.2146 17.6145C26.2146 11.4218 21.4245 6.40161 15.5155 6.40161C9.60659 6.40161 4.81645 11.4218 4.81645 17.6145C4.81645 23.8072 9.60659 28.8274 15.5155 28.8274ZM14.7681 17.298V13.5001V9.92842C14.7681 9.50383 15.1123 9.15963 15.5369 9.15963C15.9615 9.15963 16.3057 9.50383 16.3057 9.92842V13.5001V17.298V17.8406V18.1354C16.3057 18.5719 15.9519 18.9257 15.5154 18.9257C15.1027 18.9257 14.7681 18.5911 14.7681 18.1784V17.8406V17.298Z" fill="white"/>
<path d="M9.12273 29.2121L12.0108 31.9796L9.12273 29.2121ZM10.3615 29.0173L12.1427 25.4358L10.3615 29.0173ZM7.29328 31.1213L4.40518 28.3538L7.29328 31.1213ZM6.31717 30.1859L9.20526 32.9534L6.31717 30.1859ZM23.2005 28.7782L20.3124 31.5457L23.2005 28.7782ZM7.74231 28.6987L4.85423 25.9312L7.74231 28.6987ZM24.5495 30.1859L27.4376 27.4185L24.5495 30.1859ZM23.5734 31.1213L20.6853 33.8888L23.5734 31.1213ZM24.5495 31.1213L27.4376 33.8887L24.5495 31.1213ZM21.7967 29.2672L24.6848 26.4997L21.7967 29.2672ZM18.9086 32.0346L20.6853 33.8888L26.4615 28.3538L24.6848 26.4997L18.9086 32.0346ZM27.4376 27.4185L26.0886 26.0107L20.3124 31.5457L21.6614 32.9534L27.4376 27.4185ZM25.9557 30.2273C29.4023 27.1629 31.552 22.6267 31.552 17.6145H23.552C23.552 20.3162 22.3985 22.6852 20.6401 24.2486L25.9557 30.2273ZM31.552 17.6145C31.552 8.61745 24.547 1 15.5155 1V9C19.7792 9 23.552 12.678 23.552 17.6145H31.552ZM15.5155 1C6.48409 1 -0.520935 8.61745 -0.520935 17.6145H7.47906C7.47906 12.678 11.2519 9 15.5155 9V1ZM-0.520935 17.6145C-0.520935 22.5748 1.58456 27.0688 4.96847 30.1313L10.3367 24.1998C8.60876 22.636 7.47906 20.2881 7.47906 17.6145H-0.520935ZM4.85423 25.9312L3.42909 27.4185L9.20526 32.9534L10.6304 31.4662L4.85423 25.9312ZM10.1814 33.8888L12.0108 31.9796L6.23464 26.4446L4.40518 28.3538L10.1814 33.8888ZM8.58034 32.5988C10.6791 33.6426 13.0345 34.229 15.5155 34.229V26.229C14.308 26.229 13.1686 25.946 12.1427 25.4358L8.58034 32.5988ZM15.5155 34.229C17.9423 34.229 20.2493 33.668 22.3136 32.6662L18.821 25.4689C17.813 25.958 16.6971 26.229 15.5155 26.229V34.229ZM15.5155 32.8274C23.8083 32.8274 30.2146 25.8375 30.2146 17.6145H22.2146C22.2146 21.777 19.0406 24.8274 15.5155 24.8274V32.8274ZM30.2146 17.6145C30.2146 9.39154 23.8083 2.40161 15.5155 2.40161V10.4016C19.0406 10.4016 22.2146 13.452 22.2146 17.6145H30.2146ZM15.5155 2.40161C7.22271 2.40161 0.81645 9.39154 0.81645 17.6145H8.81645C8.81645 13.452 11.9905 10.4016 15.5155 10.4016V2.40161ZM0.81645 17.6145C0.81645 25.8375 7.22271 32.8274 15.5155 32.8274V24.8274C11.9905 24.8274 8.81645 21.777 8.81645 17.6145H0.81645ZM12.3057 17.298V17.8406H20.3057V17.298H12.3057ZM12.3057 17.8406V18.1354H20.3057V17.8406H12.3057ZM18.7681 18.1784V17.8406H10.7681V18.1784H18.7681ZM18.7681 17.8406V17.298H10.7681V17.8406H18.7681ZM18.7681 17.298V13.5001H10.7681V17.298H18.7681ZM18.7681 13.5001V9.92842H10.7681V13.5001H18.7681ZM12.3057 9.92842V13.5001H20.3057V9.92842H12.3057ZM12.3057 13.5001V17.298H20.3057V13.5001H12.3057ZM15.5369 5.15963C12.9032 5.15963 10.7681 7.29469 10.7681 9.92842H18.7681C18.7681 11.713 17.3215 13.1596 15.5369 13.1596V5.15963ZM12.3057 18.1354C12.3057 16.3627 13.7427 14.9257 15.5154 14.9257V22.9257C18.161 22.9257 20.3057 20.781 20.3057 18.1354H12.3057ZM12.0108 31.9796C11.0132 33.0207 9.59069 33.1013 8.58034 32.5988L12.1427 25.4358C10.3045 24.5216 7.87199 24.7359 6.23464 26.4446L12.0108 31.9796ZM3.42906 33.8887C5.26991 35.8098 8.34053 35.8098 10.1814 33.8888L4.40518 28.3538C5.7138 26.9881 7.89665 26.9881 9.20528 28.3538L3.42906 33.8887ZM3.42909 27.4185C1.69601 29.2271 1.696 32.0801 3.42906 33.8887L9.20528 28.3538C10.4373 29.6395 10.4373 31.6677 9.20526 32.9534L3.42909 27.4185ZM26.0886 26.0107C27.4061 27.3856 27.0134 29.2869 25.9557 30.2273L20.6401 24.2486C18.6794 25.9919 18.1589 29.2984 20.3124 31.5457L26.0886 26.0107ZM15.5369 13.1596C13.7524 13.1596 12.3057 11.713 12.3057 9.92842H20.3057C20.3057 7.29469 18.1706 5.15963 15.5369 5.15963V13.1596ZM4.96847 30.1313C3.92375 29.1858 3.54607 27.2964 4.85423 25.9312L10.6304 31.4662C12.7691 29.2343 12.2714 25.9508 10.3367 24.1998L4.96847 30.1313ZM27.4376 33.8887C29.1707 32.0801 29.1706 29.2271 27.4376 27.4185L21.6614 32.9534C20.4294 31.6677 20.4294 29.6395 21.6614 28.3538L27.4376 33.8887ZM20.6853 33.8888C22.5261 35.8098 25.5968 35.8098 27.4376 33.8887L21.6614 28.3538C22.97 26.9881 25.1529 26.9881 26.4615 28.3538L20.6853 33.8888ZM15.5154 14.9257C17.3118 14.9257 18.7681 16.382 18.7681 18.1784H10.7681C10.7681 20.8003 12.8936 22.9257 15.5154 22.9257V14.9257ZM24.6848 26.4997C23.0613 24.8054 20.6533 24.5797 18.821 25.4689L22.3136 32.6662C21.3062 33.1551 19.8978 33.0669 18.9086 32.0346L24.6848 26.4997Z" fill="white" mask="url(#path-8-inside-1_2403_814)"/>
<rect x="15" y="6" width="4" height="1.5" transform="rotate(-90 15 6)" fill="white"/>
<rect x="8" y="2" width="15.5" height="1.5" rx="0.75" fill="white"/>
</svg>
